<svg width="1440" height="567" viewBox="0 0 1440 567" fill="none" xmlns="http://www.w3.org/2000/svg">
<g opacity="0.3" clip-path="url(#clip0)">
<path d="M36.6963 95.9151C40.5618 95.9151 43.6954 92.7815 43.6954 88.916C43.6954 85.0506 40.5618 81.917 36.6963 81.917C32.8308 81.917 29.6973 85.0506 29.6973 88.916C29.6973 92.7815 32.8308 95.9151 36.6963 95.9151Z" fill="url(#paint0_radial)"/>
<path d="M1109.48 450.543C1109.48 441.948 1102.51 434.949 1093.89 434.949C1085.29 434.949 1078.3 441.92 1078.3 450.543C1078.3 459.138 1085.27 466.137 1093.89 466.137C1102.48 466.109 1109.48 459.138 1109.48 450.543Z" fill="url(#paint1_radial)"/>
<path opacity="0.2" d="M393.06 341.386C393.06 332.791 386.089 325.792 377.466 325.792C368.871 325.792 361.872 332.763 361.872 341.386C361.872 349.981 368.843 356.98 377.466 356.98C386.089 356.952 393.06 349.981 393.06 341.386Z" fill="url(#paint2_radial)"/>
<path opacity="0.2" d="M74 325.792C74 317.197 67.029 310.198 58.4061 310.198C49.8113 310.198 42.8123 317.169 42.8123 325.792C42.8123 334.387 49.7833 341.386 58.4061 341.386C67.001 341.358 74 334.387 74 325.792Z" fill="url(#paint3_radial)"/>
<path d="M1347.12 163.61C1350.98 163.61 1354.11 160.476 1354.11 156.611C1354.11 152.745 1350.98 149.612 1347.12 149.612C1343.25 149.612 1340.12 152.745 1340.12 156.611C1340.12 160.476 1343.25 163.61 1347.12 163.61Z" fill="url(#paint4_radial)"/>
<path d="M152.237 436.041C156.102 436.041 159.236 432.907 159.236 429.042C159.236 425.177 156.102 422.043 152.237 422.043C148.371 422.043 145.238 425.177 145.238 429.042C145.238 432.907 148.371 436.041 152.237 436.041Z" fill="url(#paint5_radial)"/>
<path d="M943.774 547.242C943.774 543.379 940.638 540.243 936.775 540.243C932.911 540.243 929.776 543.379 929.776 547.242C929.776 551.106 932.911 554.241 936.775 554.241C940.666 554.241 943.774 551.106 943.774 547.242Z" fill="url(#paint6_radial)"/>
<path d="M91.9991 237.998C95.8645 237.998 98.9981 234.865 98.9981 230.999C98.9981 227.134 95.8645 224 91.9991 224C88.1336 224 85 227.134 85 230.999C85 234.865 88.1336 237.998 91.9991 237.998Z" fill="url(#paint7_radial)"/>
<path d="M1250 537.164C1253.86 537.164 1257 534.03 1257 530.165C1257 526.299 1253.86 523.166 1250 523.166C1246.13 523.166 1243 526.299 1243 530.165C1243 534.03 1246.13 537.164 1250 537.164Z" fill="url(#paint8_radial)"/>
<path d="M388.049 434.865C391.914 434.865 395.048 431.732 395.048 427.866C395.048 424.001 391.914 420.867 388.049 420.867C384.183 420.867 381.05 424.001 381.05 427.866C381.05 431.732 384.183 434.865 388.049 434.865Z" fill="url(#paint9_radial)"/>
<path d="M337.516 503.792C341.381 503.792 344.515 500.658 344.515 496.793C344.515 492.927 341.381 489.793 337.516 489.793C333.65 489.793 330.517 492.927 330.517 496.793C330.517 500.658 333.65 503.792 337.516 503.792Z" fill="url(#paint10_radial)"/>
<path opacity="0.2" d="M524.502 15.5939C524.502 6.99905 517.531 0 508.908 0C500.314 0 493.315 6.97106 493.315 15.5939C493.315 24.1887 500.286 31.1878 508.908 31.1878C517.531 31.1598 524.502 24.1887 524.502 15.5939Z" fill="url(#paint11_radial)"/>
<path d="M875.575 38.1585C879.44 38.1585 882.574 35.0249 882.574 31.1595C882.574 27.294 879.44 24.1604 875.575 24.1604C871.709 24.1604 868.576 27.294 868.576 31.1595C868.576 35.0249 871.709 38.1585 875.575 38.1585Z" fill="url(#paint12_radial)"/>
<path d="M739.681 97.7344C743.547 97.7344 746.68 94.6009 746.68 90.7354C746.68 86.8699 743.547 83.7363 739.681 83.7363C735.816 83.7363 732.682 86.8699 732.682 90.7354C732.682 94.6009 735.816 97.7344 739.681 97.7344Z" fill="url(#paint13_radial)"/>
<path d="M519.491 109.073C523.356 109.073 526.49 105.939 526.49 102.074C526.49 98.2085 523.356 95.075 519.491 95.075C515.626 95.075 512.492 98.2085 512.492 102.074C512.492 105.939 515.626 109.073 519.491 109.073Z" fill="url(#paint14_radial)"/>
<path d="M151.285 524.09C155.15 524.09 158.284 520.956 158.284 517.091C158.284 513.225 155.15 510.092 151.285 510.092C147.419 510.092 144.286 513.225 144.286 517.091C144.286 520.956 147.419 524.09 151.285 524.09Z" fill="url(#paint15_radial)"/>
</g>
<defs>
<radialGradient id="paint0_radial" cx="0" cy="0" r="1" gradientUnits="userSpaceOnUse" gradientTransform="translate(36.7072 88.9113) scale(6.99904)">
<stop offset="0.5642" stop-color="#F50000"/>
<stop offset="0.6284" stop-color="#F10000"/>
<stop offset="0.6852" stop-color="#E70000"/>
<stop offset="0.7393" stop-color="#D50000"/>
<stop offset="0.7917" stop-color="#BB0000"/>
<stop offset="0.8429" stop-color="#9A0000"/>
<stop offset="0.8933" stop-color="#720000"/>
<stop offset="0.9428" stop-color="#420000"/>
<stop offset="0.9906" stop-color="#0C0000"/>
<stop offset="1"/>
</radialGradient>
<radialGradient id="paint1_radial" cx="0" cy="0" r="1" gradientUnits="userSpaceOnUse" gradientTransform="translate(1093.89 450.535) scale(15.581)">
<stop offset="0.5642" stop-color="#6E008B"/>
<stop offset="0.6471" stop-color="#6B0087"/>
<stop offset="0.7204" stop-color="#63007D"/>
<stop offset="0.7902" stop-color="#54006B"/>
<stop offset="0.8578" stop-color="#400051"/>
<stop offset="0.9239" stop-color="#260030"/>
<stop offset="0.9879" stop-color="#070008"/>
<stop offset="1"/>
</radialGradient>
<radialGradient id="paint2_radial" cx="0" cy="0" r="1" gradientUnits="userSpaceOnUse" gradientTransform="translate(377.489 341.374) scale(15.581)">
<stop offset="0.5642" stop-color="#EA8100"/>
<stop offset="0.6297" stop-color="#E67F00"/>
<stop offset="0.6877" stop-color="#DC7900"/>
<stop offset="0.743" stop-color="#CA6F00"/>
<stop offset="0.7965" stop-color="#B06100"/>
<stop offset="0.8487" stop-color="#8F4F00"/>
<stop offset="0.9001" stop-color="#673900"/>
<stop offset="0.95" stop-color="#371F00"/>
<stop offset="0.9989" stop-color="#010100"/>
<stop offset="1"/>
</radialGradient>
<radialGradient id="paint3_radial" cx="0" cy="0" r="1" gradientUnits="userSpaceOnUse" gradientTransform="translate(-207.063 341.374) scale(15.5807)">
<stop offset="0.5642" stop-color="#EA8100"/>
<stop offset="0.6297" stop-color="#E67F00"/>
<stop offset="0.6877" stop-color="#DC7900"/>
<stop offset="0.743" stop-color="#CA6F00"/>
<stop offset="0.7965" stop-color="#B06100"/>
<stop offset="0.8487" stop-color="#8F4F00"/>
<stop offset="0.9001" stop-color="#673900"/>
<stop offset="0.95" stop-color="#371F00"/>
<stop offset="0.9989" stop-color="#010100"/>
<stop offset="1"/>
</radialGradient>
<radialGradient id="paint4_radial" cx="0" cy="0" r="1" gradientUnits="userSpaceOnUse" gradientTransform="translate(1347.11 156.616) scale(6.99905)">
<stop offset="0.5642" stop-color="#7000B2"/>
<stop offset="0.6383" stop-color="#6E00AE"/>
<stop offset="0.704" stop-color="#6700A4"/>
<stop offset="0.7664" stop-color="#5C0092"/>
<stop offset="0.8269" stop-color="#4C0078"/>
<stop offset="0.886" stop-color="#370057"/>
<stop offset="0.9432" stop-color="#1E002F"/>
<stop offset="0.9994" stop-color="#000001"/>
<stop offset="1"/>
</radialGradient>
<radialGradient id="paint5_radial" cx="0" cy="0" r="1" gradientUnits="userSpaceOnUse" gradientTransform="translate(152.25 429.031) scale(6.99905)">
<stop offset="0.5642" stop-color="#7000B2"/>
<stop offset="0.6383" stop-color="#6E00AE"/>
<stop offset="0.704" stop-color="#6700A4"/>
<stop offset="0.7664" stop-color="#5C0092"/>
<stop offset="0.8269" stop-color="#4C0078"/>
<stop offset="0.886" stop-color="#370057"/>
<stop offset="0.9432" stop-color="#1E002F"/>
<stop offset="0.9994" stop-color="#000001"/>
<stop offset="1"/>
</radialGradient>
<radialGradient id="paint6_radial" cx="0" cy="0" r="1" gradientUnits="userSpaceOnUse" gradientTransform="translate(936.788 547.254) scale(6.99933)">
<stop offset="0.5642" stop-color="#7000B2"/>
<stop offset="0.6383" stop-color="#6E00AE"/>
<stop offset="0.704" stop-color="#6700A4"/>
<stop offset="0.7664" stop-color="#5C0092"/>
<stop offset="0.8269" stop-color="#4C0078"/>
<stop offset="0.886" stop-color="#370057"/>
<stop offset="0.9432" stop-color="#1E002F"/>
<stop offset="0.9994" stop-color="#000001"/>
<stop offset="1"/>
</radialGradient>
<radialGradient id="paint7_radial" cx="0" cy="0" r="1" gradientUnits="userSpaceOnUse" gradientTransform="translate(92.0024 230.993) scale(6.99905)">
<stop offset="0.5642" stop-color="#7000B2"/>
<stop offset="0.6383" stop-color="#6E00AE"/>
<stop offset="0.704" stop-color="#6700A4"/>
<stop offset="0.7664" stop-color="#5C0092"/>
<stop offset="0.8269" stop-color="#4C0078"/>
<stop offset="0.886" stop-color="#370057"/>
<stop offset="0.9432" stop-color="#1E002F"/>
<stop offset="0.9994" stop-color="#000001"/>
<stop offset="1"/>
</radialGradient>
<radialGradient id="paint8_radial" cx="0" cy="0" r="1" gradientUnits="userSpaceOnUse" gradientTransform="translate(1250 530.157) scale(6.99905)">
<stop offset="0.5642" stop-color="#F50000"/>
<stop offset="0.6284" stop-color="#F10000"/>
<stop offset="0.6852" stop-color="#E70000"/>
<stop offset="0.7393" stop-color="#D50000"/>
<stop offset="0.7917" stop-color="#BB0000"/>
<stop offset="0.8429" stop-color="#9A0000"/>
<stop offset="0.8933" stop-color="#720000"/>
<stop offset="0.9428" stop-color="#420000"/>
<stop offset="0.9906" stop-color="#0C0000"/>
<stop offset="1"/>
</radialGradient>
<radialGradient id="paint9_radial" cx="0" cy="0" r="1" gradientUnits="userSpaceOnUse" gradientTransform="translate(388.05 427.853) scale(6.99905)">
<stop offset="0.5642" stop-color="#F50000"/>
<stop offset="0.6284" stop-color="#F10000"/>
<stop offset="0.6852" stop-color="#E70000"/>
<stop offset="0.7393" stop-color="#D50000"/>
<stop offset="0.7917" stop-color="#BB0000"/>
<stop offset="0.8429" stop-color="#9A0000"/>
<stop offset="0.8933" stop-color="#720000"/>
<stop offset="0.9428" stop-color="#420000"/>
<stop offset="0.9906" stop-color="#0C0000"/>
<stop offset="1"/>
</radialGradient>
<radialGradient id="paint10_radial" cx="0" cy="0" r="1" gradientUnits="userSpaceOnUse" gradientTransform="translate(337.515 496.788) scale(6.99905)">
<stop offset="0.5642" stop-color="#F50000"/>
<stop offset="0.6284" stop-color="#F10000"/>
<stop offset="0.6852" stop-color="#E70000"/>
<stop offset="0.7393" stop-color="#D50000"/>
<stop offset="0.7917" stop-color="#BB0000"/>
<stop offset="0.8429" stop-color="#9A0000"/>
<stop offset="0.8933" stop-color="#720000"/>
<stop offset="0.9428" stop-color="#420000"/>
<stop offset="0.9906" stop-color="#0C0000"/>
<stop offset="1"/>
</radialGradient>
<radialGradient id="paint11_radial" cx="0" cy="0" r="1" gradientUnits="userSpaceOnUse" gradientTransform="translate(508.919 15.5813) scale(15.5813)">
<stop offset="0.5642" stop-color="#EA8100"/>
<stop offset="0.6297" stop-color="#E67F00"/>
<stop offset="0.6877" stop-color="#DC7900"/>
<stop offset="0.743" stop-color="#CA6F00"/>
<stop offset="0.7965" stop-color="#B06100"/>
<stop offset="0.8487" stop-color="#8F4F00"/>
<stop offset="0.9001" stop-color="#673900"/>
<stop offset="0.95" stop-color="#371F00"/>
<stop offset="0.9989" stop-color="#010100"/>
<stop offset="1"/>
</radialGradient>
<radialGradient id="paint12_radial" cx="0" cy="0" r="1" gradientUnits="userSpaceOnUse" gradientTransform="translate(875.568 31.162) scale(6.99905)">
<stop offset="0.5642" stop-color="#7000B2"/>
<stop offset="0.6383" stop-color="#6E00AE"/>
<stop offset="0.704" stop-color="#6700A4"/>
<stop offset="0.7664" stop-color="#5C0092"/>
<stop offset="0.8269" stop-color="#4C0078"/>
<stop offset="0.886" stop-color="#370057"/>
<stop offset="0.9432" stop-color="#1E002F"/>
<stop offset="0.9994" stop-color="#000001"/>
<stop offset="1"/>
</radialGradient>
<radialGradient id="paint13_radial" cx="0" cy="0" r="1" gradientUnits="userSpaceOnUse" gradientTransform="translate(739.678 90.7469) scale(6.99905)">
<stop offset="0.5642" stop-color="#7000B2"/>
<stop offset="0.6383" stop-color="#6E00AE"/>
<stop offset="0.704" stop-color="#6700A4"/>
<stop offset="0.7664" stop-color="#5C0092"/>
<stop offset="0.8269" stop-color="#4C0078"/>
<stop offset="0.886" stop-color="#370057"/>
<stop offset="0.9432" stop-color="#1E002F"/>
<stop offset="0.9994" stop-color="#000001"/>
<stop offset="1"/>
</radialGradient>
<radialGradient id="paint14_radial" cx="0" cy="0" r="1" gradientUnits="userSpaceOnUse" gradientTransform="translate(519.481 102.062) scale(6.99905)">
<stop offset="0.5642" stop-color="#F50000"/>
<stop offset="0.6284" stop-color="#F10000"/>
<stop offset="0.6852" stop-color="#E70000"/>
<stop offset="0.7393" stop-color="#D50000"/>
<stop offset="0.7917" stop-color="#BB0000"/>
<stop offset="0.8429" stop-color="#9A0000"/>
<stop offset="0.8933" stop-color="#720000"/>
<stop offset="0.9428" stop-color="#420000"/>
<stop offset="0.9906" stop-color="#0C0000"/>
<stop offset="1"/>
</radialGradient>
<radialGradient id="paint15_radial" cx="0" cy="0" r="1" gradientUnits="userSpaceOnUse" gradientTransform="translate(151.279 517.078) scale(6.99905)">
<stop offset="0.5642" stop-color="#7000B2"/>
<stop offset="0.6383" stop-color="#6E00AE"/>
<stop offset="0.704" stop-color="#6700A4"/>
<stop offset="0.7664" stop-color="#5C0092"/>
<stop offset="0.8269" stop-color="#4C0078"/>
<stop offset="0.886" stop-color="#370057"/>
<stop offset="0.9432" stop-color="#1E002F"/>
<stop offset="0.9994" stop-color="#000001"/>
<stop offset="1"/>
</radialGradient>
<clipPath id="clip0">
<rect width="2040.98" height="1111.9" fill="white" transform="translate(-316)"/>
</clipPath>
</defs>
</svg>
